# xmcd CD database file
#
# Track frame offsets:
#	150
#	13525
#	25980
#	38445
#	50755
#	62987
#	74372
#	88840
#	101882
#	116767
#	129102
#	143137
#	153527
#	166220
#	178027
#	189450
#	199935
#	211247
#	224482
#	236900
#	250310
#	264027
#	278652
#	293312
#
# Disc length: 4084 seconds
#
# Revision: 0
# Processed by: cddbd v1.5.2PL0 Copyright (c) Steve Scherf et al.
# Submitted via: CDex 1.70beta2
#
DISCID=610ff218
DTITLE=Various Artist - Country ＆ Western
DYEAR=1997
DGENRE=Country
TTITLE0=Wildwood Flower
TTITLE1=Oklahoma Hills
TTITLE2=Don’t  Let The Stars Get In Your Eyes
TTITLE3=Sweet Dreams
TTITLE4=What’cha Gonna Do Now
TTITLE5=Dear John Letter
TTITLE6=Hank’s Song
TTITLE7=Your Cheatin’Heart
TTITLE8=Weary Blues
TTITLE9=The Wild Side Of Life
TTITLE10=Those Old Love Letters From You
TTITLE11=North Wind
TTITLE12=High Noon
TTITLE13=16 Tons
TTITLE14=Young Love
TTITLE15=Making Believe
TTITLE16=I Can’t Stop Loving You
TTITLE17=I Really Don’t Want To Know
TTITLE18=Crying Time
TTITLE19=Gentle On My Mind
TTITLE20=Act Naturally
TTITLE21=Rhinestone Cowboy
TTITLE22=Green Green Grass Of Home
TTITLE23=Okie From Muskogee
EXTD=YEAR: 1997
EXTT0=
EXTT1=
EXTT2=
EXTT3=
EXTT4=
EXTT5=
EXTT6=
EXTT7=
EXTT8=
EXTT9=
EXTT10=
EXTT11=
EXTT12=
EXTT13=
EXTT14=
EXTT15=
EXTT16=
EXTT17=
EXTT18=
EXTT19=
EXTT20=
EXTT21=
EXTT22=
EXTT23=
PLAYORDER=
